<?xml version="1.0" encoding="UTF-8"?>
<svg id="_레이어_1" data-name="레이어 1" xmlns="http://www.w3.org/2000/svg" viewBox="0 0 530.96 169.72">
  <defs>
    <style>
      .cls-1 {
        fill: #e83828;
      }

      .cls-2 {
        fill: #1d1717;
      }
    </style>
  </defs>
  <path class="cls-2" d="M305.83,58.01h66.7v-14.31h-66.69c-2.8,0-5.15-1.81-5.17-3.94V0h-15.98v39.76c.02,10.03,9.5,18.22,21.14,18.24"/>
  <path class="cls-1" d="M93.21,3.77c-7.15,0-12.94,5.79-12.94,12.94v86.61L24.05,9.79C20.36,3.66,12.41,1.68,6.28,5.36.15,9.04-1.83,16.99,1.85,23.12l79.43,132.14c2.07,3.45,5.5,5.52,9.19,6.08.18.04.36.05.54.08.31.03.61.08.92.09.43.04.84.13,1.27.13,7.15,0,12.94-5.79,12.94-12.94V16.7c0-7.14-5.79-12.94-12.94-12.94"/>
  <polygon class="cls-1" points=".52 161.64 26.41 161.64 26.41 78.55 .52 35.48 .52 161.64"/>
  <path class="cls-1" d="M170.88,69.76v25.89h40.91c7.16,0,12.96-5.79,12.96-12.94s-5.8-12.95-12.96-12.95h-40.91Z"/>
  <path class="cls-1" d="M220.08,135.75h-49.19v25.89h49.19c7.16,0,12.94-5.79,12.94-12.94s-5.79-12.95-12.94-12.95"/>
  <path class="cls-1" d="M220.08,29.39c7.15,0,12.94-5.79,12.94-12.94s-5.79-12.94-12.94-12.94h-48.17c-7.5,0-18.42,1.55-28.63,13.2-8.74,9.98-8.64,23.86-8.64,23.86v121.07h25.89V43.36c0-3.46,1.73-7.37,3.79-9.42,3.83-3.83,7.6-4.56,7.6-4.56h48.17Z"/>
  <path class="cls-2" d="M328.64,155.42c-13.94-.02-25.29-9.88-25.31-21.95.03-12.07,11.38-21.91,25.31-21.93,13.91.01,25.26,9.86,25.3,21.93-.04,12.07-11.39,21.92-25.3,21.95M328.64,97.22c-22.41.01-40.64,16.28-40.66,36.26,0,19.98,18.25,36.24,40.66,36.24s40.63-16.26,40.63-36.26-18.23-36.23-40.63-36.25"/>
  <path class="cls-2" d="M481.09,100.29h-23.12v-12.2h23.12v12.2ZM530.96,88.09v-14.31h-124.3v14.31h35.31v12.2h-21.94v14.32h81.12v11.02h-80.44v23.32c.01,10.07,9.5,18.26,21.16,18.26h75.59v-14.31h-75.59c-2.8-.01-5.16-1.83-5.16-3.96v-8.99h80.44v-39.67h-20.05v-12.2h33.87Z"/>
  <rect class="cls-2" x="266.47" y="73.32" width="124.29" height="14.46"/>
  <path class="cls-2" d="M445.47,65.95h67.79v-14.32h-67.78c-2.8,0-5.15-1.81-5.17-3.94v-8.26h72.92V0h-88.89v14.32h72.91v10.8h-72.92v22.58c.02,10.03,9.5,18.22,21.14,18.25"/>
</svg>